<?xml version="1.0" standalone="no"?>
<!DOCTYPE svg PUBLIC "-//W3C//DTD SVG 20010904//EN"
 "http://www.w3.org/TR/2001/REC-SVG-20010904/DTD/svg10.dtd">
<svg version="1.0" xmlns="http://www.w3.org/2000/svg"
 width="201.000000pt" height="251.000000pt" viewBox="0 0 201.000000 251.000000"
 preserveAspectRatio="xMidYMid meet">

<g transform="translate(0.000000,251.000000) scale(0.100000,-0.100000)"
fill="#000000" stroke="none">
<path d="M1050 2305 c-6 -8 -16 -30 -20 -50 -7 -33 -7 -35 19 -35 49 0 55 -14
21 -44 -36 -30 -61 -33 -95 -10 -32 21 -32 40 1 51 16 5 32 24 44 51 l20 43
-23 -6 c-34 -10 -70 -38 -94 -75 -20 -29 -23 -45 -23 -141 0 -122 14 -201 41
-241 26 -37 24 -48 -11 -48 -25 0 -37 -10 -77 -65 -42 -57 -54 -67 -100 -81
-61 -18 -156 -84 -196 -137 -16 -22 -30 -55 -34 -84 -6 -45 -94 -266 -149
-375 l-24 -48 20 -74 c35 -131 51 -169 102 -248 33 -51 57 -78 71 -80 21 -3
22 -8 28 -178 4 -96 14 -222 23 -279 27 -170 7 -151 163 -151 126 0 135 1 131
18 -3 11 0 19 8 19 8 0 14 -9 14 -19 0 -13 7 -18 26 -18 23 0 25 3 20 33 l-5
32 11 -32 c11 -34 28 -44 28 -18 0 8 5 15 10 15 6 0 10 -7 10 -15 0 -21 20
-19 21 3 0 14 2 14 8 -3 l8 -20 5 20 c5 16 6 17 7 3 1 -16 14 -18 121 -18 102
0 119 2 114 15 -4 8 -1 15 6 15 7 0 10 7 6 15 -3 8 -1 15 5 15 6 0 9 6 6 14
-3 8 -3 17 1 20 7 8 9 13 27 106 8 41 14 98 15 127 0 40 6 58 25 81 14 17 25
37 25 46 0 12 10 16 40 16 21 0 49 5 62 11 31 15 123 121 184 210 l49 71 -1
87 c-3 132 -96 505 -149 596 -37 61 -90 114 -139 136 -43 18 -44 21 -40 56 6
46 -13 67 -74 83 -30 8 -62 27 -88 52 -39 38 -41 42 -36 86 5 50 20 88 30 78
14 -15 30 58 31 139 0 96 -21 165 -62 203 -44 39 -143 56 -167 27z m-20 -289
c0 -8 3 -21 6 -30 4 -12 0 -16 -15 -16 -21 0 -26 15 -15 44 8 20 24 21 24 2z
m80 -16 c0 -5 -5 -10 -11 -10 -5 0 -7 5 -4 10 3 6 8 10 11 10 2 0 4 -4 4 -10z
m-52 -479 c-2 -7 -12 -19 -23 -27 -17 -10 -22 -10 -35 4 -13 14 -12 15 3 9 15
-5 16 -3 7 13 -9 17 -7 19 20 17 20 -1 30 -7 28 -16z m142 -183 c0 -4 7 -5 15
-2 19 8 20 -16 0 -42 -8 -10 -15 -15 -15 -10 0 5 -6 3 -13 -3 -11 -8 -17 -5
-27 13 -16 31 -7 55 19 53 12 -1 21 -5 21 -9z m102 -30 c22 -22 23 -29 4 -22
-28 11 -5 -36 25 -52 50 -26 31 -24 -28 3 -62 28 -97 51 -49 33 41 -15 45 -4
5 14 -19 8 -29 15 -22 15 6 1 9 10 6 20 -4 16 -1 19 18 14 12 -4 30 -14 41
-25z m-653 -336 c-9 -51 -14 -60 -25 -51 -11 9 -11 14 0 32 8 12 17 37 21 55
12 58 15 28 4 -36z m797 31 c7 -10 14 -30 14 -45 0 -15 5 -39 10 -54 13 -33
-5 -91 -35 -116 -35 -31 -42 -17 -16 31 10 18 12 48 7 113 -4 48 -4 88 0 88 4
0 13 -8 20 -17z m-386 -897 c0 -3 -4 -8 -10 -11 -5 -3 -10 -1 -10 4 0 6 5 11
10 11 6 0 10 -2 10 -4z"/>
</g>
</svg>
