<?xml version="1.0" standalone="no"?>
<!DOCTYPE svg PUBLIC "-//W3C//DTD SVG 20010904//EN"
 "http://www.w3.org/TR/2001/REC-SVG-20010904/DTD/svg10.dtd">
<svg version="1.0" xmlns="http://www.w3.org/2000/svg"
 width="213.000000pt" height="237.000000pt" viewBox="0 0 213.000000 237.000000"
 preserveAspectRatio="xMidYMid meet">

<g transform="translate(0.000000,237.000000) scale(0.100000,-0.100000)"
fill="#000000" stroke="none">
<path d="M1206 2197 c-58 -31 -63 -32 -190 -32 -122 0 -135 2 -185 27 l-54 26
-53 -29 c-63 -34 -99 -56 -252 -156 l-112 -75 -44 -91 c-38 -81 -78 -185 -172
-450 l-24 -68 68 -30 c37 -17 90 -40 117 -51 28 -10 79 -36 114 -56 l63 -37
-7 -512 -7 -513 191 0 c181 0 193 1 221 22 29 21 32 21 152 9 68 -7 185 -12
261 -12 103 0 149 -4 178 -16 43 -17 181 -16 198 2 5 6 6 115 0 280 -4 149
-10 381 -12 517 l-4 247 91 59 c50 33 124 79 164 102 84 48 83 30 15 190 -66
156 -181 381 -211 413 -15 16 -61 49 -102 75 -41 25 -106 65 -143 89 -88 56
-177 103 -191 102 -6 0 -38 -15 -70 -32z m-126 -107 c0 -11 -2 -20 -4 -20 -2
0 -6 9 -9 20 -3 11 -1 20 4 20 5 0 9 -9 9 -20z m-44 -17 c13 2 24 0 24 -4 0
-5 -13 -9 -30 -9 -25 0 -30 4 -29 23 1 18 2 19 6 4 4 -14 12 -18 29 -14z m8
15 c-3 -4 -9 -8 -15 -8 -5 0 -9 4 -9 8 0 5 7 9 15 9 8 0 12 -4 9 -9z"/>
</g>
</svg>
